<?xml version="1.0" encoding="UTF-8"?>
<svg width="200" height="200" viewBox="0 0 200 200" xmlns="http://www.w3.org/2000/svg">
  <defs>
    <linearGradient id="goldGradient" x1="0%" y1="0%" x2="100%" y2="100%">
      <stop offset="0%" style="stop-color:#F4C430;stop-opacity:1" />
      <stop offset="50%" style="stop-color:#DAA520;stop-opacity:1" />
      <stop offset="100%" style="stop-color:#B8860B;stop-opacity:1" />
    </linearGradient>
    <linearGradient id="blueGradient" x1="0%" y1="0%" x2="100%" y2="100%">
      <stop offset="0%" style="stop-color:#4A90E2;stop-opacity:1" />
      <stop offset="50%" style="stop-color:#2E74B5;stop-opacity:1" />
      <stop offset="100%" style="stop-color:#1E4A66;stop-opacity:1" />
    </linearGradient>
    <linearGradient id="lightBlueGradient" x1="0%" y1="0%" x2="100%" y2="100%">
      <stop offset="0%" style="stop-color:#87CEEB;stop-opacity:1" />
      <stop offset="100%" style="stop-color:#4682B4;stop-opacity:1" />
    </linearGradient>
    <radialGradient id="centerGradient" cx="50%" cy="50%" r="50%">
      <stop offset="0%" style="stop-color:#000000;stop-opacity:1" />
      <stop offset="100%" style="stop-color:#1a1a1a;stop-opacity:1" />
    </radialGradient>
  </defs>
  
  <!-- Background Circle (Black) -->
  <circle cx="100" cy="100" r="95" fill="url(#centerGradient)"/>
  
  <!-- Golden Crescent Frame (Matching the image) -->
  <path d="M 100 5 A 95 95 0 0 1 195 100 A 95 95 0 0 1 100 195 A 70 70 0 0 0 100 30 A 70 70 0 0 0 170 100 A 70 70 0 0 0 100 170 Z" fill="url(#goldGradient)" opacity="0.95"/>
  
  <!-- House (Blue, positioned lower left) -->
  <g transform="translate(35, 130)">
    <!-- House Base -->
    <rect x="0" y="15" width="50" height="35" fill="url(#blueGradient)"/>
    <!-- House Roof -->
    <polygon points="25,0 55,15 -5,15" fill="url(#blueGradient)"/>
    <!-- Windows -->
    <rect x="6" y="22" width="10" height="10" fill="#000" opacity="0.8"/>
    <rect x="20" y="22" width="10" height="10" fill="#000" opacity="0.8"/>
    <!-- Door -->
    <rect x="35" y="32" width="12" height="18" fill="#000" opacity="0.8"/>
    
    <!-- Water waves at base -->
    <path d="M -8 55 Q 12 48 32 55 Q 52 62 72 55" stroke="url(#lightBlueGradient)" stroke-width="2.5" fill="none"/>
    <path d="M -5 60 Q 15 53 35 60 Q 55 67 75 60" stroke="url(#lightBlueGradient)" stroke-width="2" fill="none"/>
  </g>
  
  <!-- Person Icon (Blue circles, top center) -->
  <g transform="translate(100, 40)" fill="url(#blueGradient)">
    <!-- Head -->
    <circle cx="0" cy="0" r="8"/>
    <!-- Body (simplified) -->
    <circle cx="0" cy="18" r="12"/>
  </g>
  
  <!-- Hand with Spray Bottle (Golden, right side) -->
  <g transform="translate(130, 75)">
    <!-- Hand (Golden) -->
    <path d="M 15 25 Q 22 20 28 25 L 35 35 Q 40 42 35 48 L 28 53 Q 22 58 15 53 L 8 48 Q 3 42 8 35 Z" fill="url(#goldGradient)"/>
    
    <!-- Spray Bottle (Blue with golden cap) -->
    <rect x="35" y="30" width="18" height="28" rx="2" fill="url(#blueGradient)"/>
    <!-- Bottle cap/trigger (Golden) -->
    <rect x="36" y="25" width="4" height="8" rx="1" fill="url(#goldGradient)"/>
    <circle cx="40" cy="29" r="2" fill="url(#goldGradient)"/>
    
    <!-- Spray effect -->
    <g stroke="url(#lightBlueGradient)" fill="none" opacity="0.8">
      <path d="M 55 35 L 68 30" stroke-width="2"/>
      <path d="M 55 37 L 66 35" stroke-width="1.5"/>
      <path d="M 55 39 L 64 40" stroke-width="1"/>
      <!-- Spray droplets -->
      <circle cx="70" cy="28" r="1" fill="url(#lightBlueGradient)"/>
      <circle cx="68" cy="33" r="0.8" fill="url(#lightBlueGradient)"/>
      <circle cx="66" cy="38" r="0.6" fill="url(#lightBlueGradient)"/>
    </g>
  </g>
  
  <!-- Sparkles/Stars (Blue and white) -->
  <g opacity="0.9">
    <!-- Large 4-point star (upper left) -->
    <g transform="translate(60, 55)" fill="url(#lightBlueGradient)">
      <polygon points="0,-8 2,-2 8,0 2,2 0,8 -2,2 -8,0 -2,-2"/>
    </g>
    
    <!-- Medium star (right) -->
    <g transform="translate(155, 95)" fill="white">
      <polygon points="0,-5 1.5,-1.5 5,0 1.5,1.5 0,5 -1.5,1.5 -5,0 -1.5,-1.5"/>
    </g>
    
    <!-- Small stars -->
    <circle cx="75" cy="85" r="2" fill="url(#lightBlueGradient)"/>
    <circle cx="165" cy="125" r="1.5" fill="white"/>
    <circle cx="45" cy="75" r="1" fill="white"/>
    
    <!-- Crescent moon shape (upper right) -->
    <g transform="translate(145, 60)">
      <path d="M 0 -8 A 8 8 0 0 1 0 8 A 6 6 0 0 0 0 -8 Z" fill="url(#lightBlueGradient)"/>
    </g>
  </g>
</svg> 